<svg xmlns="http://www.w3.org/2000/svg" viewBox="0 0 100 100" fill="none">
  <circle cx="50" cy="50" r="45" fill="#800000" />
  <path d="M50 15C30.67 15 15 30.67 15 50C15 69.33 30.67 85 50 85C69.33 85 85 69.33 85 50C85 30.67 69.33 15 50 15ZM50 25C63.8 25 75 36.2 75 50C75 63.8 63.8 75 50 75C36.2 75 25 63.8 25 50C25 36.2 36.2 25 50 25Z" fill="#000000" />
  <path d="M65 50C65 58.28 58.28 65 50 65C41.72 65 35 58.28 35 50C35 41.72 41.72 35 50 35C58.28 35 65 41.72 65 50Z" fill="#800000" />
  <path d="M50 30C38.95 30 30 38.95 30 50C30 61.05 38.95 70 50 70C61.05 70 70 61.05 70 50C70 38.95 61.05 30 50 30ZM50 40C55.52 40 60 44.48 60 50C60 55.52 55.52 60 50 60C44.48 60 40 55.52 40 50C40 44.48 44.48 40 50 40Z" fill="#ffffff" />
  <path d="M50 5C25.15 5 5 25.15 5 50C5 74.85 25.15 95 50 95C74.85 95 95 74.85 95 50C95 25.15 74.85 5 50 5ZM50 10C72.09 10 90 27.91 90 50C90 72.09 72.09 90 50 90C27.91 90 10 72.09 10 50C10 27.91 27.91 10 50 10Z" fill="#000000" />
  <path d="M85 50C85 69.33 69.33 85 50 85C30.67 85 15 69.33 15 50C15 30.67 30.67 15 50 15C69.33 15 85 30.67 85 50Z" stroke="#ffffff" stroke-width="2" />
</svg>

